# xmcd
#
# Track frame offsets:
#       150
#       13861
#       37754
#       58575
#       79932
#       96596
#       116743
#       138386
#       163789
#       185991
#       207295
#       226761
#
# Disc length: 3157 seconds
#
# Revision: 1
# Processed by: cddbd v1.4PL0 Copyright (c) Steve Scherf et al.
# Submitted via: MusiCat 1.1
#
DISCID=a60c530c
DTITLE=Veronica Martell - Lucky
DYEAR=1900
DGENRE=
TTITLE0=Too Young for the Blues
TTITLE1=Something's Gotta Give
TTITLE2=It's Alright With Me
TTITLE3=If I'm Lucky
TTITLE4=Flip Flop and Fly
TTITLE5=My Heart Belongs to Daddy
TTITLE6=Black Night
TTITLE7=Teardrops from My Eyes
TTITLE8=Romancing the Blues
TTITLE9=Even God Must Get the Blues
TTITLE10=Why Don't You Do Right
TTITLE11=Ain't That a Kick in the Head
EXTD=\n\n
EXTT0=
EXTT1=
EXTT2=
EXTT3=
EXTT4=
EXTT5=
EXTT6=
EXTT7=
EXTT8=
EXTT9=
EXTT10=
EXTT11=
PLAYORDER=
